<?xml version="1.0" encoding="utf-8"?>
<!-- Generator: Adobe Illustrator 15.1.0, SVG Export Plug-In . SVG Version: 6.00 Build 0)  -->
<!DOCTYPE svg PUBLIC "-//W3C//DTD SVG 1.1//EN" "http://www.w3.org/Graphics/SVG/1.1/DTD/svg11.dtd">
<svg version="1.1" id="Layer_1" xmlns="http://www.w3.org/2000/svg" xmlns:xlink="http://www.w3.org/1999/xlink" x="0px" y="0px"
	 width="300px" height="50px" viewBox="0 0 300 50" enable-background="new 0 0 300 50" xml:space="preserve">
<g>
	<g>
		<g transform="matrix( 1, 0, 0, 1, 0,0) ">
			<g>
				<g id="gh_0_Layer0_0_MEMBER_0_MEMBER_1_MEMBER_0_FILL">
					<path fill="#99CC67" d="M1.887,23.599c0.034-6.155,2.228-11.358,6.581-15.61c4.319-4.283,9.522-6.375,15.609-6.273
						c6.087,0.101,11.272,2.346,15.557,6.732c4.285,4.387,6.41,9.658,6.376,15.813c-0.034,1.632-0.203,3.196-0.51,4.692h3.163
						c0.136-1.155,0.221-2.363,0.255-3.622c0.034-6.834-2.329-12.718-7.09-17.649C37.1,2.753,31.371,0.236,24.638,0.135
						C17.871,0.033,12.072,2.363,7.244,7.123C2.449,11.883,0.035,17.699,0,24.568c-0.033,6.871,2.313,12.769,7.039,17.699
						c4.421,4.557,9.691,7.04,15.813,7.448v-3.57c-5.713-0.307-10.593-2.567-14.64-6.784C3.962,34.974,1.854,29.719,1.887,23.599z"
						/>
				</g>
			</g>
		</g>
		<g transform="matrix( 1, 0, 0, 1, 0,0) ">
			<g>
				<g id="gh_0_Layer0_0_MEMBER_0_MEMBER_1_MEMBER_1_FILL">
					<path fill="#F0AF27" d="M46.52,30.688l4.132,5.256l-1.174-19.079l-18.006,8.212l6.376,1.785
						c-2.448,6.463-5.457,11.836-9.028,16.12h-0.051c-2.958,2.821-6.393,3.365-10.304,1.632c-0.034,0-0.05-0.016-0.05-0.052
						c-3.164-1.904-5.458-5.337-6.887-10.304c-0.136,4.354,1.615,8.553,5.254,12.6v0.052c4.454,3.944,9.623,3.944,15.506,0v-0.052
						C37.56,43.083,42.304,37.694,46.52,30.688z"/>
				</g>
			</g>
		</g>
		<g transform="matrix( 0.1323699951171875, 0, 0, 0.13226318359375, -84.15,-21.1) ">
			<g transform="matrix( 1, 0, 0, 1, 0,0) ">
				<g>
					<g id="Symbol_2_0_Layer0_0_MEMBER_0_MEMBER_0_FILL_1_">
						<path fill="#E5B347" d="M748.827,281.355c4.083,3.204,8.912,4.836,14.493,4.899c5.607-0.063,10.421-1.695,14.434-4.899
							c3.91-3.024,5.898-6.76,5.965-11.219c-0.066-4.629-2.055-8.524-5.965-11.729c-1.354-0.986-2.796-1.798-4.334-2.448
							c-7.614,10.459-17.706,15.623-30.299,15.513C743.478,275.348,745.381,278.645,748.827,281.355z"/>
						<path fill="#E8BA5A" d="M743.12,271.472c-0.055,0.011-0.111,0.011-0.155,0c0.291,3.935,2.195,7.273,5.714,9.99
							c4.08,3.297,8.956,4.951,14.641,4.951c5.707,0,10.55-1.654,14.534-4.951c4.017-3.027,6.016-6.804,6.016-11.326
							c0-4.629-1.999-8.583-6.016-11.876c-1.328-1.008-2.752-1.831-4.286-2.503c-0.044,0.066-0.092,0.14-0.148,0.203
							c1.538,0.65,2.981,1.462,4.334,2.448c3.91,3.204,5.898,7.099,5.965,11.729c-0.066,4.46-2.055,8.196-5.965,11.219
							c-4.013,3.204-8.827,4.836-14.434,4.899c-5.581-0.063-10.41-1.695-14.493-4.899
							C745.381,278.645,743.478,275.348,743.12,271.472z"/>
						<path fill="#09727D" d="M864.978,252.943c-0.446-0.166-0.885,0.554-1.328,2.149c-1.084,5.239-6.175,10.389-15.249,15.457
							c-10.373,6.047-22.9,10.042-37.592,11.987c-13.77,1.868-27.463,6.405-41.067,13.615
							c-10.126,5.338-17.647,10.492-22.546,15.457c-5.068,5.235-9.775,12.042-14.128,20.401
							c-6.116,11.836-9.285,22.992-9.487,33.462c-0.063,15.815,6.43,27.548,19.488,35.197h0.151
							c0.443-0.066,0.579-0.554,0.409-1.477c-0.203-0.783-0.524-2.023-0.97-3.736c-1.601-5.774-2.888-12.124-3.877-19.072
							c-1.664-12.441,4.382-26.034,18.16-40.742c1.498,3.972,3.176,15.926,5.05,35.847c1.597,19.278,2.534,34.488,2.803,45.6
							c0,8.609-1.597,20.563-4.795,35.862c-1.867,9.695-3.689,17.565-5.456,23.62c-1.151,3.544-1.653,5.973-1.483,7.295
							c0.103,0.805,0.38,1.292,0.815,1.477c0.277,0.177,0.771,0.096,1.483-0.251h0.1c7.923-5.885,15.356-17.536,22.295-34.953
							c5.614-14.568,10.841-31.461,15.707-50.643c4.829-19.492,14.571-30.021,29.233-31.623c14.759-1.698,25.63,3.227,32.638,14.797
							c7.042,11.651,13.453,23.036,19.237,34.119c3.467,6.593,5.81,9.85,7.042,9.739c0.469-0.059,0.712-1.152,0.712-3.323
							c0-1.853-0.184-4.689-0.564-8.513c-0.712-7.472-2.173-18.673-4.386-33.602c-1.704-10.13-4.998-19.389-9.893-27.755
							c-5.142-9.052-11.258-14.726-18.37-17.034c-6.323-2.241-15.212-1.772-26.673,1.436h-0.148l-15.205,5.202
							c-1.324-3.204-1.988-10.138-1.988-20.821c-0.103-7.539,2.741-13.807,8.517-18.769c4.795-4.017,12.258-7.616,22.394-10.809
							c13.154-4.083,22.896-13.338,29.219-27.751c1.778-3.647,2.217-6.841,1.332-9.595
							C866.015,253.7,865.487,252.943,864.978,252.943 M863.909,255.191c0.336-1.425,0.697-2.09,1.07-1.99
							c0.443,0,0.911,0.713,1.428,2.149c0.719,2.651,0.273,5.759-1.328,9.329c-6.293,14.387-15.987,23.535-29.071,27.441
							c-10.203,3.3-17.754,6.992-22.653,11.075c-5.681,4.988-8.514,11.304-8.514,18.92c0,10.861,0.66,17.898,1.981,21.117h0.111
							l15.504-5.349c11.461-3.031,20.299-3.481,26.522-1.336c7.009,2.222,13.099,7.86,18.259,16.941v0.103
							c4.902,8.277,8.148,17.506,9.746,27.651c2.309,14.819,3.825,26.012,4.541,33.551c0.336,3.751,0.509,6.557,0.509,8.41
							c-0.07,1.89-0.24,2.85-0.509,2.924c-1.088,0.199-3.313-2.953-6.688-9.429c-5.777-11.127-12.166-22.564-19.174-34.289
							c-7.208-11.629-18.189-16.524-32.948-14.693c-14.858,1.632-24.726,12.175-29.588,31.631
							c-4.895,19.278-10.155,36.164-15.766,50.651c-6.765,17.447-14.087,29.047-21.981,34.835c-0.546,0.325-1.04,0.421-1.483,0.258
							c-0.273-0.177-0.402-0.583-0.402-1.226c-0.17-1.322,0.269-3.751,1.321-7.295c1.771-6.054,3.593-13.925,5.463-23.62
							c3.298-15.299,4.899-27.252,4.795-35.862c-0.173-11.112-1.055-26.322-2.652-45.6c-2.044-20.364-3.781-32.462-5.205-36.257
							h-0.255c-13.94,14.922-20.115,28.637-18.514,41.152c1.055,7.044,2.379,13.394,3.973,19.072
							c0.443,1.713,0.719,2.953,0.819,3.736c0.17,0.65,0.17,1.056,0,1.226c-12.992-7.657-19.399-19.308-19.229-34.946
							c0.1-10.47,3.213-21.578,9.333-33.307c4.456-8.458,9.167-15.228,14.128-20.297c4.832-5.058,12.313-10.278,22.442-15.612
							c13.608-7.177,27.238-11.659,40.916-13.471c14.759-1.931,27.337-5.929,37.747-11.983h-0.155
							C857.649,265.635,862.82,260.43,863.909,255.191z"/>
						<path fill="#109AAB" d="M864.978,253.201c-0.373-0.1-0.734,0.565-1.07,1.99c-1.088,5.239-6.26,10.444-15.508,15.609h0.155
							c-10.41,6.054-22.988,10.053-37.747,11.983c-13.678,1.813-27.308,6.294-40.916,13.471
							c-10.129,5.335-17.61,10.555-22.442,15.612c-4.961,5.069-9.672,11.839-14.128,20.297c-6.12,11.729-9.233,22.837-9.333,33.307
							c-0.17,15.638,6.238,27.289,19.229,34.946c0.17-0.17,0.17-0.576,0-1.226c-0.1-0.783-0.376-2.023-0.819-3.736
							c-1.594-5.678-2.918-12.028-3.973-19.072c-1.601-12.515,4.574-26.23,18.514-41.152h0.255
							c1.424,3.795,3.161,15.893,5.205,36.257c1.597,19.278,2.479,34.488,2.652,45.6c0.103,8.609-1.498,20.563-4.795,35.862
							c-1.87,9.695-3.692,17.565-5.463,23.62c-1.051,3.544-1.49,5.973-1.321,7.295c0,0.642,0.129,1.048,0.402,1.226
							c0.443,0.162,0.937,0.066,1.483-0.258c7.894-5.789,15.216-17.388,21.981-34.835c5.611-14.486,10.871-31.372,15.766-50.651
							c4.862-19.456,14.729-29.999,29.588-31.631c14.759-1.831,25.74,3.064,32.948,14.693c7.009,11.725,13.398,23.162,19.174,34.289
							c3.375,6.475,5.6,9.628,6.688,9.429c0.269-0.074,0.439-1.034,0.509-2.924c0-1.853-0.173-4.659-0.509-8.41
							c-0.716-7.539-2.232-18.732-4.541-33.551c-1.597-10.145-4.843-19.374-9.746-27.651v-0.103
							c-5.161-9.082-11.251-14.719-18.259-16.941c-6.223-2.145-15.061-1.694-26.522,1.336l-15.504,5.349h-0.111
							c-1.321-3.219-1.981-10.256-1.981-21.117c0-7.616,2.833-13.933,8.514-18.92c4.899-4.083,12.45-7.775,22.653-11.075
							c13.084-3.906,22.778-13.054,29.071-27.441c1.601-3.57,2.047-6.678,1.328-9.329
							C865.889,253.914,865.421,253.201,864.978,253.201z"/>
						<path fill="#6E4597" d="M876.963,205.46l-10.812-19.839l-11.479,20.249l-21.472,3.463l16.017,17.093l-3.213,21.42
							l20.709-9.281l19.742,8.266l-2.807-21.877l14.644-15.867L876.963,205.46z"/>
					</g>
				</g>
			</g>
		</g>
		<g transform="matrix( 0.1323699951171875, 0, 0, 0.13226318359375, -96.05,-25.9) ">
			<g>
				<g id="gh_0_Layer0_0_MEMBER_0_MEMBER_3_MEMBER_0_MEMBER_0_MEMBER_0_FILL">
					
						<linearGradient id="SVGID_1_" gradientUnits="userSpaceOnUse" x1="-14094.7207" y1="-7538.4497" x2="-14056.958" y2="-7521.2896" gradientTransform="matrix(0.1324 0 0 -0.1323 1965.7257 -370.6196)">
						<stop  offset="0" style="stop-color:#010201"/>
						<stop  offset="0.7686" style="stop-color:#373738"/>
						<stop  offset="0.9137" style="stop-color:#252525"/>
						<stop  offset="1" style="stop-color:#010201"/>
					</linearGradient>
					<path fill="url(#SVGID_1_)" d="M863.319,284.047l-10.1-18.204l-35.556,16.159l9.742,17.447
						c0.509,1.425,1.512,2.924,3.014,4.493c1.767,1.831,3.39,2.743,4.891,2.702c4.865,0.137,9.263-0.528,13.209-1.986
						c3.471-1.263,6.699-3.168,9.69-5.719c2.755-2.315,4.729-4.711,5.92-7.188c0.476-1.403,0.686-2.451,0.616-3.164
						C864.673,287.901,864.197,286.388,863.319,284.047z"/>
				</g>
			</g>
		</g>
		<g transform="matrix( 0.1323699951171875, 0, 0, 0.13226318359375, -96.05,-26.45) ">
			<g>
				<g id="gh_0_Layer0_0_MEMBER_0_MEMBER_3_MEMBER_0_MEMBER_0_MEMBER_1_FILL">
					<path fill="#373637" d="M876.931,261.16l-45.036,7.147l-32.9,29.482l48.917,1.986L876.931,261.16z"/>
				</g>
			</g>
		</g>
		<g transform="matrix( 0.0240631103515625, -0.0108489990234375, 0.0110015869140625, 0.0240936279296875, -89.4,-14.7) ">
			<g>
				<g id="gh_0_Layer0_0_MEMBER_0_MEMBER_3_MEMBER_0_MEMBER_0_MEMBER_2_FILL">
					<path fill="#010201" d="M3062.809,2713.055c1.204,3.846,3.396,6.596,6.468,8.222c2.867,1.453,6.052,1.854,9.638,1.199
						c3.519-0.685,6.639-2.138,9.495-4.479c3.031-2.546,5.112-5.5,6.224-8.952c1.513-3.575,0.301-16.503-3.601-38.769
						c-5.304-27.943-9.078-48.226-11.285-60.974l-11.599,0.472c0.309,15.257-0.42,33.715-2.216,55.442
						C3063.928,2689.26,3062.895,2705.19,3062.809,2713.055z"/>
				</g>
			</g>
		</g>
		<g transform="matrix( 0.0240631103515625, -0.0108489990234375, 0.0110015869140625, 0.0240936279296875, -89.4,-14.7) ">
			<g>
				<g id="gh_0_Layer0_0_MEMBER_0_MEMBER_3_MEMBER_0_MEMBER_0_MEMBER_3_FILL">
					<path fill="#373637" d="M3222.092,2464.316l0.326-3.643c-2.738,2.172-7.763,2.199-14.988,0.162
						c-3.823-1.093-6.228-1.69-7.15-1.76c-2.173-0.35-3.52-0.024-4.036,1.06c-0.207,0.231-0.242,1.594-0.053,4.11
						c3.18,3.296,7.38,4.985,12.58,5.016C3213.988,2469.259,3218.418,2467.647,3222.092,2464.316z"/>
				</g>
			</g>
		</g>
		<g transform="matrix( 0.0240631103515625, -0.0108489990234375, 0.0110015869140625, 0.0240936279296875, -89.4,-14.7) ">
			<g>
				<g id="gh_0_Layer0_0_MEMBER_0_MEMBER_3_MEMBER_0_MEMBER_0_MEMBER_4_FILL">
					<path fill="#010201" d="M3074.79,2509.815c6.461-9.027,27.004-18.097,61.75-27.298c3.045-0.757,16.866-4.18,41.41-10.151
						c15.414-3.8,26.337-6.786,32.824-9.214l-6.522-2.734c-53.087,11.014-90.423,20.953-111.879,29.936
						c-14.858,6.178-23.452,12.725-25.854,19.709c-1.262,4.093-1.747,12.609-1.454,25.549c0.43,17.034,0.545,27.523,0.37,31.457
						l7.664-0.075c0.324-4.171,0.187-15.277-0.373-33.181C3072.276,2520.417,3072.962,2512.437,3074.79,2509.815z"/>
				</g>
			</g>
		</g>
		<g transform="matrix( 0.0240631103515625, -0.0108489990234375, 0.0110015869140625, 0.0240936279296875, -89.4,-14.7) ">
			<g>
				<g id="gh_0_Layer0_0_MEMBER_0_MEMBER_3_MEMBER_0_MEMBER_0_MEMBER_5_FILL">
					
						<linearGradient id="SVGID_2_" gradientUnits="userSpaceOnUse" x1="246828.3125" y1="-405281.5625" x2="246842.5" y2="-405278.6875" gradientTransform="matrix(0.0241 0.0109 0.011 -0.0241 1482.6991 -9828.3711)">
						<stop  offset="0" style="stop-color:#FFFFFF"/>
						<stop  offset="1" style="stop-color:#929190"/>
					</linearGradient>
					<path fill="url(#SVGID_2_)" d="M3063.649,2583.49l3.712,31.158l13.312-2.619l-3.721-31.183L3063.649,2583.49z"/>
				</g>
			</g>
		</g>
		<g transform="matrix( 0.0240631103515625, -0.0108489990234375, 0.0110015869140625, 0.0240936279296875, -89.4,-14.7) ">
			<g>
				<g id="gh_0_Layer0_0_MEMBER_0_MEMBER_3_MEMBER_0_MEMBER_0_MEMBER_6_MEMBER_0_FILL">
					<path fill="#424345" d="M3298.418,2438.778c2.144-0.028,3.147-0.67,2.973-1.843c-0.192-1.221-0.755-1.677-1.687-1.327
						c-13.539-0.3-27.375,1.556-41.502,5.692c-10.621,3.081-23.098,8.001-37.412,14.809c-1.069,0.43-1.354,1.052-0.853,1.865
						c0.484,0.805,1.496,0.856,2.945,0.171c8.337-2.569,20.748-6.546,37.338-11.985
						C3274.649,2441.856,3287.403,2439.392,3298.418,2438.778z"/>
				</g>
			</g>
		</g>
		<g transform="matrix( 0.0240631103515625, -0.0108489990234375, 0.0110015869140625, 0.0240936279296875, -89.4,-14.7) ">
			<g>
				<g id="gh_0_Layer0_0_MEMBER_0_MEMBER_3_MEMBER_0_MEMBER_0_MEMBER_6_MEMBER_1_FILL">
					<path fill="#424345" d="M3305.121,2510.882c2.114,1.722,3.366,2.002,3.662,0.778c0.341-1.367-0.048-2.292-1.097-2.703
						c-13.278-11.39-27.709-20.968-43.387-28.574c-11.728-5.727-26.09-11.241-43.034-16.52c-1.264-0.387-1.829,0.007-1.655,1.18
						c0.149,1.182,1.063,1.979,2.839,2.535c9.271,4.398,23.23,10.704,41.849,19.067
						C3280.403,2494.422,3294.019,2502.499,3305.121,2510.882z"/>
				</g>
			</g>
		</g>
		<g transform="matrix( 0.0240631103515625, -0.0108489990234375, 0.0110015869140625, 0.0240936279296875, -89.4,-14.7) ">
			<g>
				<g id="gh_0_Layer0_0_MEMBER_0_MEMBER_3_MEMBER_0_MEMBER_0_MEMBER_6_MEMBER_2_FILL">
					<path fill="#424345" d="M3109.652,2435.208c-0.283,0.886,0.879,1.45,3.388,1.688c13.076,1.49,28.146,4.568,45.161,9.25
						c9.807,2.693,24.439,6.951,43.894,12.732c1.704,0.666,2.849,0.736,3.467,0.183c0.656-0.637,0.307-1.159-0.91-1.605
						c-16.685-6.601-31.277-11.611-43.839-14.937c-16.652-4.499-33.01-7.244-49.133-8.241
						C3110.562,2434.017,3109.885,2434.3,3109.652,2435.208z"/>
				</g>
			</g>
		</g>
		<g transform="matrix( 0.0240631103515625, -0.0108489990234375, 0.0110015869140625, 0.0240936279296875, -89.4,-14.7) ">
			<g>
				<g id="gh_0_Layer0_0_MEMBER_0_MEMBER_3_MEMBER_0_MEMBER_0_MEMBER_7_FILL">
					<path fill="#010201" d="M3069.856,2561.703c-2.895,0.074-5.32,1.516-7.341,4.517c-2.026,2.877-3.042,6.432-3.002,10.605
						l-0.014,0.297c0.014,4.141,1.098,7.628,3.149,10.598c2.046,2.847,4.506,4.258,7.416,4.15c2.915,0.016,5.379-1.469,7.385-4.436
						c2.066-2.92,3.026-6.44,3.01-10.622l-0.018-0.271c-0.031-4.148-1.051-7.688-3.154-10.499
						C3075.221,2563.105,3072.745,2561.686,3069.856,2561.703z"/>
				</g>
			</g>
		</g>
		<g transform="matrix( 0.0240631103515625, -0.0108489990234375, 0.0110015869140625, 0.0240936279296875, -89.4,-14.7) ">
			<g>
				<g id="gh_0_Layer0_0_MEMBER_0_MEMBER_3_MEMBER_0_MEMBER_0_MEMBER_8_FILL">
					
						<linearGradient id="SVGID_3_" gradientUnits="userSpaceOnUse" x1="276167.4063" y1="-385374.7813" x2="276193.6563" y2="-385374.7813" gradientTransform="matrix(0.0241 0.0109 0.011 -0.0241 1482.6991 -9828.3711)">
						<stop  offset="0" style="stop-color:#010201"/>
						<stop  offset="1" style="stop-color:#797979"/>
					</linearGradient>
					<path fill="url(#SVGID_3_)" d="M3222.418,2460.673c0.025-2.096-1.29-3.925-3.887-5.479c-2.57-1.481-5.667-2.207-9.269-2.228
						c-3.593,0.003-6.679,0.762-9.268,2.251c-2.612,1.54-3.896,3.373-3.889,5.443c3.003,2.973,7.453,4.47,13.206,4.447
						C3215.109,2465.164,3219.494,2463.652,3222.418,2460.673z"/>
				</g>
			</g>
		</g>
		<g transform="matrix( 0.0240631103515625, -0.0108489990234375, 0.0110015869140625, 0.0240936279296875, -89.4,-14.7) ">
			<g>
				<g id="gh_0_Layer0_0_MEMBER_0_MEMBER_3_MEMBER_0_MEMBER_0_MEMBER_9_FILL">
					<path fill="#010201" d="M3303.583,2442.482c2.133-0.093,3.123-0.661,2.949-1.833c-0.192-1.222-0.714-1.679-1.662-1.336
						c-13.573-0.315-27.407,1.582-41.559,5.728c-10.63,3.056-23.072,8.033-37.372,14.767l-0.009-0.024
						c-1.011,0.436-1.311,1.092-0.859,1.923c0.541,0.77,1.487,0.832,2.961,0.137c8.371-2.553,20.797-6.564,37.329-12.01
						C3279.854,2445.517,3292.576,2443.079,3303.583,2442.482z"/>
				</g>
			</g>
		</g>
		<g transform="matrix( 0.0240631103515625, -0.0108489990234375, 0.0110015869140625, 0.0240936279296875, -89.4,-14.7) ">
			<g>
				<g id="gh_0_Layer0_0_MEMBER_0_MEMBER_3_MEMBER_0_MEMBER_0_MEMBER_10_FILL">
					<path fill="#010201" d="M3301.903,2514.682c2.18,1.711,3.414,1.942,3.699,0.652c0.384-1.327-0.019-2.177-1.13-2.677
						c-13.348-11.502-27.972-21.147-43.772-28.93c-11.947-5.825-26.437-11.458-43.548-16.772c-1.241-0.437-1.767-0.086-1.608,1.12
						c0.125,1.191,1.059,2.078,2.863,2.525c9.366,4.501,23.472,10.974,42.253,19.471
						C3276.909,2497.936,3290.63,2506.14,3301.903,2514.682z"/>
				</g>
			</g>
		</g>
		<g transform="matrix( 0.0240631103515625, -0.0108489990234375, 0.0110015869140625, 0.0240936279296875, -89.4,-14.7) ">
			<g>
				<g id="gh_0_Layer0_0_MEMBER_0_MEMBER_3_MEMBER_0_MEMBER_0_MEMBER_11_FILL">
					<path fill="#010201" d="M3106.586,2433.26c-1.292-0.237-1.818,0.114-1.545,1.027c0.24,0.939,1.245,1.493,3.024,1.686
						c9.621,2.346,23.982,5.732,43.22,10.078c16.665,4.16,30.865,8.872,42.58,14.228c2.266,1.081,3.501,1.13,3.729,0.098
						c0.192-1.13-0.205-1.815-1.328-1.976c-14.057-7.424-29.189-13.204-45.449-17.364
						C3138.635,2437.903,3123.864,2435.325,3106.586,2433.26z"/>
				</g>
			</g>
		</g>
	</g>
	<g>
		<g transform="matrix( 0.2169342041015625, 0, 0, 0.2160797119140625, -60.2,-65.15) ">
			<g>
				<g id="gh_0_Layer0_1_MEMBER_0_MEMBER_0_MEMBER_0_FILL">
					<path fill="#00BCC8" d="M601.099,360.836c-20.618,0-37.992,6.824-52.107,20.478c-14.417,13.884-21.615,31.25-21.615,52.114
						c0,20.672,7.11,38.04,21.347,52.105c14.176,14.01,31.55,21.002,52.118,21.002c14.527,0,27.973-3.656,40.333-10.978
						c12.893-7.615,22.29-17.902,28.207-30.85c3.988-8.262,6.093-17.305,6.332-27.153h-88.142v12.912h69.868
						c-1.177,5.568-3.372,10.896-6.595,16.003c-3.338,5.098-7.468,9.568-12.386,13.445c-5.044,3.982-10.667,7.055-16.881,9.224
						c-6.615,2.355-13.53,3.516-20.735,3.516c-15.88,0-29.324-5.423-40.339-16.256c-11.542-11.249-17.311-25.562-17.311-42.971
						c0-17.174,5.735-31.349,17.223-42.528c11.022-10.79,24.435-16.175,40.252-16.175c12.184,0,23.085,3.277,32.687,9.839
						c6.098,4.043,11.335,9.109,15.736,15.201h17.845c-5.51-11.54-14.297-20.882-26.373-28.03
						C628.43,364.465,615.281,360.836,601.099,360.836z"/>
				</g>
			</g>
		</g>
		<g transform="matrix( 0.2169342041015625, 0, 0, 0.2160797119140625, -60.2,-65.15) ">
			<g>
				<g id="gh_0_Layer0_1_MEMBER_0_MEMBER_0_MEMBER_1_FILL">
					<path fill="#00BCC8" d="M697.945,448.192c0-11.552,2.669-20.36,7.997-26.452c5.278-6.038,12.859-9.055,22.765-9.055h1.312
						v-13.802c-15.639,0.481-26.508,6.978-32.594,19.51V401.7H684.06v102.112h13.885V448.192z"/>
				</g>
			</g>
		</g>
		<g transform="matrix( 0.2169342041015625, 0, 0, 0.2160797119140625, -60.2,-65.15) ">
			<g>
				<g id="gh_0_Layer0_1_MEMBER_0_MEMBER_0_MEMBER_2_FILL">
					<path fill="#00BCC8" d="M817.988,401.7v21.44c-2.753-6.442-7.583-11.918-14.491-16.435c-8.035-5.211-17.109-7.823-27.253-7.823
						c-15.402,0-28.142,5.243-38.226,15.739c-9.843,10.25-14.761,22.959-14.761,38.135c0,14.756,4.691,27.279,14.061,37.52
						c9.962,10.973,22.934,16.428,38.926,16.428c9.201,0,17.437-2.038,24.703-6.151c7.385-4.208,13.066-10.142,17.041-17.739v20.997
						h14.068V401.7H817.988 M777.748,411.727c8.724,0,16.519,2.328,23.37,7.012c6.446,4.402,11.135,10.237,14.061,17.495
						c2.393,5.102,3.462,10.544,3.165,16.338c0,5.807-1.112,11.199-3.34,16.184c-2.872,7.434-7.439,13.387-13.712,17.838
						c-6.674,4.682-14.417,7.01-23.199,7.01c-12.94,0-23.26-4.465-30.935-13.432c-6.557-7.669-9.899-16.758-10.009-27.243v-0.172
						c0-11.493,3.833-21.183,11.504-29.096C756.383,415.702,766.082,411.727,777.748,411.727z"/>
				</g>
			</g>
		</g>
		<g transform="matrix( 0.2169342041015625, 0, 0, 0.2160797119140625, -60.2,-65.15) ">
			<g>
				<g id="gh_0_Layer0_1_MEMBER_0_MEMBER_0_MEMBER_3_FILL">
					<path fill="#00BCC8" d="M950.686,363.38h-14.059v59.065c-2.633-6.155-7.351-11.427-14.144-15.82
						c-8.035-5.157-17.228-7.742-27.6-7.742c-15.171,0-27.768,5.166-37.787,15.479c-9.895,10.18-14.851,22.929-14.851,38.21
						c0,14.941,4.718,27.528,14.151,37.796c9.951,10.901,22.848,16.338,38.667,16.338c10.079,0,18.862-2.3,26.366-6.942
						c6.608-4.036,11.862-9.69,15.729-16.948v20.997h13.527V363.38 M896.9,411.727c5.632,0,10.993,1.037,16.089,3.155
						c4.92,1.984,9.201,4.861,12.843,8.612c7.837,7.742,11.758,17.314,11.758,28.744c0.176,5.554-0.761,10.924-2.809,16.067
						c-1.994,5.044-4.857,9.495-8.616,13.369c-3.628,3.751-7.932,6.675-12.915,8.777c-5.15,2.115-10.52,3.155-16.084,3.155
						c-12.65,0-22.783-4.235-30.404-12.722c-6.964-7.679-10.509-17.056-10.628-28.125v-0.185c0-11.538,3.869-21.201,11.594-28.997
						C875.459,415.684,885.2,411.727,896.9,411.727z"/>
				</g>
			</g>
		</g>
		<g transform="matrix( 0.2169342041015625, 0, 0, 0.2160797119140625, -60.2,-65.15) ">
			<g>
				<g id="gh_0_Layer0_1_MEMBER_0_MEMBER_0_MEMBER_4_FILL">
					<path fill="#00BCC8" d="M1067.482,456.797c0.77-8.203-0.234-16.085-2.989-23.641c-2.813-7.615-7.149-14.232-13.01-19.856
						c-4.794-4.63-10.426-8.205-16.872-10.727c-6.442-2.459-13.271-3.69-20.469-3.69c-15.171,0-27.951,5.279-38.314,15.829
						c-10.309,10.413-15.468,23.167-15.468,38.216c0,14.001,4.574,26.172,13.712,36.476c10.192,11.529,23.589,17.3,40.245,17.3
						c10.592,0,20.275-2.779,29-8.343c9.143-5.744,16.053-14.028,20.735-24.861h-14.675c-3.282,6.671-7.959,11.85-14.063,15.547
						c-6.145,3.697-13.14,5.536-20.996,5.536c-9.737,0.117-18.434-2.947-26.105-9.233c-8.837-7.136-13.437-16.659-13.793-28.554
						H1067.482 M1041.466,421.297c7.617,6.969,11.659,15.059,12.132,24.251H974.59c0.702-9.545,4.749-17.662,12.127-24.346
						c7.608-6.908,16.814-10.365,27.6-10.365C1024.567,410.54,1033.625,414.032,1041.466,421.297z"/>
				</g>
			</g>
		</g>
		<g transform="matrix( 0.2169342041015625, 0, 0, 0.2160797119140625, -60.2,-65.15) ">
			<g>
				<g id="gh_0_Layer0_1_MEMBER_0_MEMBER_0_MEMBER_5_FILL">
					<path fill="#6E4597" d="M1121.88,388.255c8.657,0,15.319,1.428,19.947,4.307c3.165,2.045,5.708,4.863,7.639,8.433
						c1.886,3.686,2.823,7.642,2.823,11.864c0,4.208-0.788,8.144-2.372,11.773c-1.589,3.516-3.745,6.445-6.5,8.795
						c-2.642,2.047-6.424,3.484-11.349,4.298c-3.511,0.529-8.166,0.791-13.973,0.791h-5.443l37.782,65.297h29.634l-31.381-52.028
						c4.974-1.229,9.219-2.92,12.735-5.098c4.101-2.517,7.599-5.853,10.457-10.006c5.037-7.272,7.558-16.03,7.558-26.281
						c0-7.909-1.535-15.17-4.569-21.795c-3.111-6.797-7.527-12.25-13.271-16.347c-8.089-5.92-22.072-8.878-41.919-8.878h-42.532
						v140.433h28.207V388.255H1121.88z"/>
				</g>
			</g>
		</g>
		<g transform="matrix( 0.2169342041015625, 0, 0, 0.2160797119140625, -60.2,-65.15) ">
			<g>
				<g id="gh_0_Layer0_1_MEMBER_0_MEMBER_0_MEMBER_6_FILL">
					<path fill="#6E4597" d="M1233.84,485.803c-7.626,0.122-14.306-2.088-20.041-6.594c-6.271-4.863-9.661-11.281-10.192-19.248
						h83.911c2.251-18.982-2.881-34.859-15.373-47.633c-4.848-5.089-10.606-9.016-17.228-11.778
						c-6.73-2.809-13.964-4.208-21.698-4.208c-15.472,0-28.495,5.593-39.106,16.774c-10.372,10.842-15.553,23.827-15.553,38.94
						c0,14.874,5.181,27.668,15.553,38.393c10.664,11.077,23.85,16.618,39.556,16.618c11.232,0,21.18-3.051,29.783-9.147
						c9.309-6.318,16.35-15.05,21.099-26.181h-25.673C1253.666,481.116,1245.319,485.803,1233.84,485.803 M1204.044,440.979
						c0.527-5.789,3.232-10.978,8.08-15.551c5.69-5.333,12.776-7.997,21.275-7.997c8.436-0.052,15.549,2.605,21.356,7.997
						c5.028,4.682,7.819,9.87,8.346,15.551H1204.044z"/>
				</g>
			</g>
		</g>
		<g transform="matrix( 0.2169342041015625, 0, 0, 0.2160797119140625, -60.2,-65.15) ">
			<g>
				<g id="gh_0_Layer0_1_MEMBER_0_MEMBER_0_MEMBER_7_FILL">
					<path fill="#6E4597" d="M1338.333,420.058c1.747,1.867,2.678,4.438,2.8,7.651h24.521c-0.932-11.249-5.627-19.594-14.068-25.047
						c-6.428-4.221-14.077-6.32-22.913-6.32c-10.439,0-19.209,2.985-26.294,8.96c-7.428,6.271-11.164,14.376-11.164,24.337
						c0.18,12.835,8.742,21.888,25.664,27.157c11.016,3.801,17.912,6.508,20.645,8.09c4.177,2.517,6.253,5.835,6.253,9.929
						c0.122,3.457-1.238,6.345-4.052,8.691c-2.809,2.296-6.194,3.435-10.187,3.435c-3.394,0-6.451-0.854-9.143-2.544
						c-3.736-2.346-5.825-5.988-6.235-10.896h-24.872c0.869,11.484,5.74,20.238,14.585,26.263
						c7.212,4.858,15.652,7.303,25.308,7.303c11.245,0,20.599-3.159,28.036-9.495c7.851-6.607,11.673-15.176,11.43-25.652
						c-0.054-9.907-3.817-17.472-11.254-22.679c-4.398-3.046-12.262-6.119-23.634-9.224c-5.568-1.582-9.737-3.29-12.483-5.098
						c-3.394-2.228-5.132-4.89-5.19-7.995c0-2.811,0.999-5.184,2.998-7.118c2.282-2.176,5.393-3.254,9.314-3.254
						C1332.845,416.551,1336.158,417.729,1338.333,420.058z"/>
				</g>
			</g>
		</g>
		<g transform="matrix( 0.2169342041015625, 0, 0, 0.2160797119140625, -60.2,-65.15) ">
			<g>
				<g id="gh_0_Layer0_1_MEMBER_0_MEMBER_0_MEMBER_8_FILL">
					<path fill="#A1CF67" d="M1472.518,399.592h-24.872v56.771c0,2.635-0.18,5.116-0.527,7.462
						c-1.58,11.195-7.437,17.68-17.579,19.425v23.818h2.372c6.743,0,12.744-1.08,18.016-3.254c8.387-3.34,14.473-9.328,18.277-18.01
						c2.872-6.567,4.313-14.272,4.313-23.117V399.592z"/>
				</g>
			</g>
		</g>
		<g transform="matrix( 0.2169342041015625, 0, 0, 0.2160797119140625, -60.2,-65.15) ">
			<g>
				<g id="gh_0_Layer0_1_MEMBER_0_MEMBER_0_MEMBER_9_FILL">
					<path fill="#6E4597" d="M1376.025,462.686c0,8.845,1.463,16.55,4.394,23.117c3.817,8.682,9.904,14.67,18.29,18.01
						c5.253,2.174,11.259,3.254,18.011,3.254h2.278v-23.818c-9.661-1.745-15.468-7.823-17.394-18.2l-0.176-1.225
						c-0.351-2.346-0.545-4.827-0.545-7.462v-56.771h-24.858V462.686z"/>
				</g>
			</g>
		</g>
		<g transform="matrix( 0.2169342041015625, 0, 0, 0.2160797119140625, -60.2,-65.15) ">
			<g>
				<g id="gh_0_Layer0_1_MEMBER_0_MEMBER_0_MEMBER_10_FILL">
					<path fill="#A1CF67" d="M1521.114,363.38h-24.872v140.433h24.872V363.38z"/>
				</g>
			</g>
		</g>
		<g transform="matrix( 0.2169342041015625, 0, 0, 0.2160797119140625, -60.2,-65.15) ">
			<g>
				<g id="gh_0_Layer0_1_MEMBER_0_MEMBER_0_MEMBER_11_FILL">
					<path fill="#A1CF67" d="M1605.209,382.536V363.38h-35.149v-36.384h-24.863v177.165h24.863V382.536H1605.209z"/>
				</g>
			</g>
		</g>
		<g transform="matrix( 0.2169342041015625, 0, 0, 0.2160797119140625, -60.2,-65.15) ">
			<g>
				<g id="gh_0_Layer0_1_MEMBER_0_MEMBER_0_MEMBER_12_FILL">
					<path fill="#6E4597" d="M1629.995,420.325c1.765,1.934,2.701,4.515,2.809,7.742h24.521
						c-0.936-11.256-5.605-19.605-13.96-25.054c-6.46-4.221-14.126-6.32-23.03-6.32c-10.426,0-19.2,2.981-26.285,8.96
						c-7.437,6.214-11.155,14.297-11.155,24.258c0.18,12.88,8.733,21.937,25.659,27.144c11.007,3.869,17.908,6.594,20.654,8.176
						c4.16,2.517,6.244,5.826,6.244,9.925c0.108,3.462-1.238,6.377-4.038,8.704c-2.813,2.291-6.226,3.435-10.201,3.435
						c-3.399,0-6.455-0.845-9.143-2.553c-3.741-2.346-5.834-5.997-6.244-10.978h-24.858c0.869,11.534,5.731,20.328,14.585,26.362
						c7.198,4.872,15.643,7.29,25.295,7.29c11.268,0,20.635-3.164,28.131-9.495c7.788-6.616,11.605-15.167,11.43-25.661
						c-0.126-9.889-3.898-17.45-11.335-22.665c-4.412-3.055-12.276-6.124-23.638-9.233c-5.582-1.577-9.733-3.277-12.492-5.098
						c-3.394-2.224-5.118-4.881-5.186-7.99c0-2.807,0.999-5.188,2.994-7.123c2.282-2.224,5.384-3.338,9.309-3.338
						C1624.517,416.811,1627.839,417.988,1629.995,420.325z"/>
				</g>
			</g>
		</g>
	</g>
</g>
</svg>
